<svg width="20" height="21" viewBox="0 0 20 21" fill="none" xmlns="http://www.w3.org/2000/svg">
<g clip-path="url(#clip0_5215_27538)">
<path d="M8.33285 16.3336C8.13814 16.334 7.94944 16.2662 7.79951 16.1419C7.71513 16.072 7.64538 15.9861 7.59425 15.8891C7.54313 15.7922 7.51163 15.6861 7.50157 15.5769C7.4915 15.4678 7.50307 15.3577 7.53561 15.253C7.56815 15.1484 7.62101 15.0512 7.69118 14.9669L11.4245 10.5003L7.82451 6.02528C7.75529 5.94004 7.7036 5.84196 7.67241 5.73667C7.64121 5.63139 7.63113 5.52098 7.64275 5.41179C7.65437 5.3026 7.68745 5.19678 7.74009 5.10042C7.79274 5.00405 7.86391 4.91904 7.94951 4.85028C8.03574 4.77441 8.13671 4.71719 8.24609 4.6822C8.35548 4.64721 8.47091 4.6352 8.58516 4.64694C8.6994 4.65868 8.80999 4.6939 8.90997 4.75041C9.00996 4.80691 9.09719 4.88347 9.16618 4.97528L13.1912 9.97528C13.3137 10.1244 13.3808 10.3114 13.3808 10.5044C13.3808 10.6975 13.3137 10.8845 13.1912 11.0336L9.02451 16.0336C8.94092 16.1345 8.83472 16.2142 8.71455 16.2663C8.59437 16.3184 8.4636 16.3415 8.33285 16.3336Z" fill="#141517"/>
</g>
<defs>
<clipPath id="clip0_5215_27538">
<rect width="20" height="20" fill="white" transform="translate(0 0.5)"/>
</clipPath>
</defs>
</svg>
