<svg width="20" height="20" viewBox="0 0 20 20" fill="none" xmlns="http://www.w3.org/2000/svg">
<path d="M2.5 7.4987C2.5 6.57822 3.24619 5.83203 4.16667 5.83203H4.94136C5.49862 5.83203 6.019 5.55353 6.32811 5.08986L7.00522 4.0742C7.31433 3.61053 7.83472 3.33203 8.392 3.33203H11.608C12.1652 3.33203 12.6857 3.61053 12.9948 4.0742L13.6719 5.08986C13.981 5.55353 14.5014 5.83203 15.0587 5.83203H15.8333C16.7538 5.83203 17.5 6.57822 17.5 7.4987V14.9987C17.5 15.9192 16.7538 16.6654 15.8333 16.6654H4.16667C3.24619 16.6654 2.5 15.9192 2.5 14.9987V7.4987Z" stroke="#141517" stroke-width="2" stroke-linecap="round" stroke-linejoin="round"/>
<path d="M12.5 10.832C12.5 12.2128 11.3807 13.332 10 13.332C8.61925 13.332 7.5 12.2128 7.5 10.832C7.5 9.45128 8.61925 8.33203 10 8.33203C11.3807 8.33203 12.5 9.45128 12.5 10.832Z" stroke="#141517" stroke-width="2" stroke-linecap="round" stroke-linejoin="round"/>
</svg>
