<svg viewBox="0 0 18 18" fill="none" xmlns="http://www.w3.org/2000/svg">
<g clip-path="url(#clip0_5052_25625)">
<path
      d="M10.0579 8.99916L13.2829 5.78166C13.4242 5.64043 13.5035 5.44889 13.5035 5.24916C13.5035 5.04944 13.4242 4.85789 13.2829 4.71666C13.1417 4.57543 12.9502 4.49609 12.7504 4.49609C12.5507 4.49609 12.3592 4.57543 12.2179 4.71666L9.00044 7.94166L5.78294 4.71666C5.64171 4.57543 5.45017 4.49609 5.25044 4.49609C5.05072 4.49609 4.85917 4.57543 4.71794 4.71666C4.57671 4.85789 4.49737 5.04944 4.49737 5.24916C4.49737 5.44889 4.57671 5.64043 4.71794 5.78166L7.94294 8.99916L4.71794 12.2167C4.64765 12.2864 4.59185 12.3693 4.55377 12.4607C4.5157 12.5521 4.49609 12.6502 4.49609 12.7492C4.49609 12.8482 4.5157 12.9462 4.55377 13.0376C4.59185 13.129 4.64765 13.2119 4.71794 13.2817C4.78766 13.352 4.87062 13.4078 4.96201 13.4458C5.0534 13.4839 5.15143 13.5035 5.25044 13.5035C5.34945 13.5035 5.44748 13.4839 5.53888 13.4458C5.63027 13.4078 5.71322 13.352 5.78294 13.2817L9.00044 10.0567L12.2179 13.2817C12.2877 13.352 12.3706 13.4078 12.462 13.4458C12.5534 13.4839 12.6514 13.5035 12.7504 13.5035C12.8495 13.5035 12.9475 13.4839 13.0389 13.4458C13.1303 13.4078 13.2132 13.352 13.2829 13.2817C13.3532 13.2119 13.409 13.129 13.4471 13.0376C13.4852 12.9462 13.5048 12.8482 13.5048 12.7492C13.5048 12.6502 13.4852 12.5521 13.4471 12.4607C13.409 12.3693 13.3532 12.2864 13.2829 12.2167L10.0579 8.99916Z"
      fill="black"
    />
</g>
<defs>
<clipPath id="clip0_5052_25625">
<rect width="18" height="18" fill="white" />
</clipPath>
</defs>
</svg>
