<svg width="20" height="20" viewBox="0 0 20 20" fill="none" xmlns="http://www.w3.org/2000/svg">
<path d="M7.49967 2.70898C4.85331 2.70898 2.70801 4.85428 2.70801 7.50065V13.4231C2.70801 13.7682 2.98783 14.0481 3.33301 14.0481C3.67818 14.0481 3.95801 13.7682 3.95801 13.4231V7.50065C3.95801 5.54464 5.54367 3.95898 7.49967 3.95898H13.3438C13.6889 3.95898 13.9688 3.67916 13.9688 3.33398C13.9688 2.98881 13.6889 2.70898 13.3438 2.70898H7.49967Z" fill="white"/>
<path fill-rule="evenodd" clip-rule="evenodd" d="M15.3358 5.66193C12.635 5.36008 9.86566 5.36008 7.16489 5.66193C6.39549 5.74793 5.77722 6.35342 5.68653 7.12878C5.36621 9.86755 5.36621 12.6342 5.68653 15.373C5.77722 16.1484 6.39549 16.7538 7.16489 16.8398C9.86566 17.1417 12.635 17.1417 15.3358 16.8398C16.1052 16.7538 16.7235 16.1484 16.8142 15.373C17.1345 12.6342 17.1345 9.86755 16.8142 7.12878C16.7235 6.35342 16.1052 5.74793 15.3358 5.66193ZM7.30373 6.9042C9.91224 6.61266 12.5884 6.61266 15.1969 6.9042C15.3947 6.9263 15.5502 7.08273 15.5726 7.27399C15.8817 9.91622 15.8817 12.5856 15.5726 15.2278C15.5502 15.4191 15.3947 15.5755 15.1969 15.5976C12.5884 15.8891 9.91224 15.8891 7.30373 15.5976C7.10594 15.5755 6.95043 15.4191 6.92807 15.2278C6.61903 12.5856 6.61903 9.91622 6.92807 7.27399C6.95043 7.08273 7.10594 6.9263 7.30373 6.9042Z" fill="white"/>
</svg>
