<svg width="24" height="24" viewBox="0 0 24 24" fill="none" xmlns="http://www.w3.org/2000/svg">
<path d="M12 18C12 18.5523 11.5523 19 11 19H6.001C5.44833 19 5.00045 18.5517 5.001 17.999L5.006 12.996C5.00655 12.4458 5.45276 12 6.003 12C6.55363 12 7 12.4464 7 12.997V17H11C11.5523 17 12 17.4477 12 18ZM18.9931 11.0046C18.9925 11.5545 18.5465 12 17.9966 12C17.4462 12 17 11.5538 17 11.0034V7H13C12.4477 7 12 6.55228 12 6C12 5.44772 12.4477 5 13 5H17.9989C18.5516 5 18.9995 5.44841 18.9989 6.00114L18.9931 11.0046Z" fill="#F2F3F9"/>
</svg>
