<svg width="24" height="24" viewBox="0 0 24 24" fill="none" xmlns="http://www.w3.org/2000/svg">
<path d="M2.5004 8.72444L11.5004 13.8255C11.6524 13.9116 11.8249 13.9569 12.0004 13.9569C12.1759 13.9569 12.3484 13.9116 12.5004 13.8255L21.5004 8.72444C21.6515 8.63884 21.7772 8.51594 21.8649 8.36794C21.9526 8.21994 21.9993 8.05199 22.0004 7.8808C22.0011 7.70794 21.9552 7.53797 21.8674 7.3881C21.7796 7.23823 21.653 7.11378 21.5004 7.02736L12.5004 1.93611C12.3484 1.85001 12.1759 1.80469 12.0004 1.80469C11.8249 1.80469 11.6524 1.85001 11.5004 1.93611L2.5004 7.02736C2.34779 7.11378 2.22118 7.23823 2.13337 7.3881C2.04557 7.53797 1.9997 7.70794 2.0004 7.8808C2.00145 8.05199 2.04816 8.21994 2.13587 8.36794C2.22359 8.51594 2.34926 8.63884 2.5004 8.72444ZM12.0004 3.95691L19.0004 7.8808L12.0004 11.8047L5.0004 7.8808L12.0004 3.95691ZM20.5004 10.9905L12.0004 15.7286L3.5004 10.9512C3.38626 10.8864 3.26018 10.8443 3.1294 10.8275C2.99862 10.8106 2.86573 10.8193 2.73839 10.853C2.61105 10.8868 2.49177 10.9449 2.38743 11.024C2.28308 11.1032 2.19573 11.2018 2.1304 11.3142C2.00002 11.5394 1.96576 11.8061 2.03507 12.0561C2.10439 12.306 2.27167 12.5189 2.5004 12.6483L11.5004 17.7494C11.6524 17.8355 11.8249 17.8808 12.0004 17.8808C12.1759 17.8808 12.3484 17.8355 12.5004 17.7494L21.5004 12.6483C21.7291 12.5189 21.8964 12.306 21.9657 12.0561C22.035 11.8061 22.0008 11.5394 21.8704 11.3142C21.8051 11.2018 21.7177 11.1032 21.6134 11.024C21.509 10.9449 21.3897 10.8868 21.2624 10.853C21.1351 10.8193 21.0022 10.8106 20.8714 10.8275C20.7406 10.8443 20.6145 10.8864 20.5004 10.9512V10.9905ZM20.5004 14.9144L12.0004 19.6525L3.5004 14.8751C3.38626 14.8103 3.26018 14.7682 3.1294 14.7513C2.99862 14.7345 2.86573 14.7432 2.73839 14.7769C2.61105 14.8106 2.49177 14.8688 2.38743 14.9479C2.28308 15.0271 2.19573 15.1257 2.1304 15.2381C2.00002 15.4633 1.96576 15.73 2.03507 15.98C2.10439 16.2299 2.27167 16.4428 2.5004 16.5722L11.5004 21.6733C11.6524 21.7594 11.8249 21.8047 12.0004 21.8047C12.1759 21.8047 12.3484 21.7594 12.5004 21.6733L21.5004 16.5722C21.7291 16.4428 21.8964 16.2299 21.9657 15.98C22.035 15.73 22.0008 15.4633 21.8704 15.2381C21.8051 15.1257 21.7177 15.0271 21.6134 14.9479C21.509 14.8688 21.3897 14.8106 21.2624 14.7769C21.1351 14.7432 21.0022 14.7345 20.8714 14.7513C20.7406 14.7682 20.6145 14.8103 20.5004 14.8751V14.9144Z" fill="#5C6574" fill-opacity="0.4"/>
</svg>
