<svg width="24" height="24" viewBox="0 0 24 24" fill="none" xmlns="http://www.w3.org/2000/svg">
<g clip-path="url(#clip0_6351_23659)">
<path d="M11.9403 12.654C9.59637 12.654 7.68945 10.7471 7.68945 8.40318C7.68945 6.05927 9.59637 4.15234 11.9403 4.15234C14.2842 4.15234 16.1911 6.05927 16.1911 8.40318C16.1911 10.7471 14.2842 12.654 11.9403 12.654ZM11.9403 5.56132C10.3733 5.56132 9.09847 6.83616 9.09847 8.40313C9.09847 9.97011 10.3733 11.2449 11.9403 11.2449C13.5072 11.2449 14.7821 9.97011 14.7821 8.40313C14.7821 6.83616 13.5072 5.56132 11.9403 5.56132Z" fill="#5C6574" fill-opacity="0.4"/>
<path d="M11.9405 24C11.9396 24 11.9388 24 11.938 24C11.6893 23.9991 11.4595 23.8672 11.3334 23.653L5.01464 12.9214C4.18731 11.5163 3.75 9.91167 3.75 8.2811V8.24977C3.74995 3.70084 7.45079 0 11.9997 0C16.5487 0 20.2495 3.70084 20.2495 8.24977C20.2495 9.90255 19.8011 11.5259 18.9526 12.9444L12.5451 23.6571C12.4178 23.8698 12.1882 24 11.9405 24ZM11.9997 1.40902C8.22773 1.40902 5.15897 4.47778 5.15897 8.24977V8.2811C5.15897 9.66048 5.52889 11.0179 6.2288 12.2065L11.9452 21.9151L17.7434 12.2211C18.4611 11.0213 18.8405 9.64799 18.8405 8.24982C18.8405 4.47778 15.7717 1.40902 11.9997 1.40902Z" fill="#5C6574" fill-opacity="0.4"/>
</g>
<defs>
<clipPath id="clip0_6351_23659">
<rect width="24" height="24" fill="white"/>
</clipPath>
</defs>
</svg>
