<svg width="20" height="21" viewBox="0 0 20 21" fill="none" xmlns="http://www.w3.org/2000/svg">
<g clip-path="url(#clip0_5215_27535)">
<path d="M10.203 2.16602C6.87474 2.16602 4.16699 4.87377 4.16699 8.20203C4.16699 12.3325 9.56866 18.3963 9.79864 18.6524C10.0147 18.893 10.3918 18.8926 10.6074 18.6524C10.8374 18.3963 16.2391 12.3325 16.2391 8.20203C16.239 4.87377 13.5313 2.16602 10.203 2.16602ZM10.203 11.2389C8.52849 11.2389 7.16618 9.87657 7.16618 8.20203C7.16618 6.52748 8.52852 5.16517 10.203 5.16517C11.8775 5.16517 13.2399 6.52751 13.2399 8.20206C13.2399 9.8766 11.8775 11.2389 10.203 11.2389Z" fill="#141517"/>
</g>
<defs>
<clipPath id="clip0_5215_27535">
<rect width="20" height="20" fill="white" transform="translate(0 0.5)"/>
</clipPath>
</defs>
</svg>
