<svg width="24" height="24" viewBox="0 0 24 24" fill="none" xmlns="http://www.w3.org/2000/svg">
<path d="M21.0004 3.9996C20.99 3.90773 20.9699 3.81723 20.9404 3.7296V3.6396C20.8925 3.5283 20.8247 3.42665 20.7404 3.3396C20.6556 3.25986 20.5574 3.19556 20.4504 3.1496H20.3604C20.2683 3.07921 20.1628 3.02818 20.0504 2.9996H20.0004C19.901 2.98451 19.7999 2.98451 19.7004 2.9996L1.70045 8.9996C1.50038 9.06535 1.32618 9.1926 1.20268 9.36319C1.07918 9.53377 1.0127 9.739 1.0127 9.94959C1.0127 10.1602 1.07918 10.3654 1.20268 10.536C1.32618 10.7066 1.50038 10.8338 1.70045 10.8996L10.2304 13.7396L13.0704 22.2696C13.1362 22.4697 13.2634 22.6439 13.434 22.7674C13.6046 22.8909 13.8098 22.9573 14.0204 22.9573C14.231 22.9573 14.4363 22.8909 14.6069 22.7674C14.7774 22.6439 14.9047 22.4697 14.9704 22.2696L20.9704 4.2696C20.9927 4.18138 21.0028 4.09054 21.0004 3.9996ZM16.3004 6.2896L10.7304 11.8596L5.16045 9.9996L16.3004 6.2896ZM14.0004 18.8396L12.1404 13.2696L17.7104 7.69959L14.0004 18.8396Z" fill="#141517"/>
</svg>
