<svg width="24" height="24" viewBox="0 0 24 24" fill="none" xmlns="http://www.w3.org/2000/svg">
<g clip-path="url(#clip0_6243_27295)">
<path d="M7.7842 5.07196L18.742 11.5444C18.8205 11.5909 18.8857 11.6575 18.9309 11.7374C18.9762 11.8173 19 11.9079 19 12C19 12.0921 18.9762 12.1827 18.9309 12.2626C18.8857 12.3425 18.8205 12.4091 18.742 12.4556L7.7842 18.928C7.7048 18.975 7.61458 18.9998 7.52266 19C7.43074 19.0002 7.34039 18.9758 7.26078 18.9293C7.18116 18.8828 7.11511 18.8158 7.06932 18.7351C7.02352 18.6544 6.99961 18.5629 7 18.4698V5.52809C6.99998 5.4352 7.02416 5.34394 7.0701 5.26354C7.11605 5.18314 7.18213 5.11643 7.26168 5.07016C7.34124 5.02389 7.43144 4.99969 7.52318 5C7.61492 5.00032 7.70496 5.02514 7.7842 5.07196Z" fill="white"/>
</g>
<defs>
<clipPath id="clip0_6243_27295">
<rect width="24" height="24" fill="white"/>
</clipPath>
</defs>
</svg>
