<svg width="24" height="24" viewBox="0 0 24 24" fill="none" xmlns="http://www.w3.org/2000/svg">
<path d="M4.71019 3.29019C4.61695 3.19695 4.50626 3.12299 4.38443 3.07253C4.26261 3.02207 4.13204 2.99609 4.00019 2.99609C3.86833 2.99609 3.73776 3.02207 3.61594 3.07253C3.49411 3.12299 3.38342 3.19695 3.29019 3.29019C3.10188 3.47849 2.99609 3.73388 2.99609 4.00019C2.99609 4.26649 3.10188 4.52188 3.29019 4.71019L19.2902 20.7102C19.3831 20.8039 19.4937 20.8783 19.6156 20.9291C19.7375 20.9798 19.8682 21.006 20.0002 21.006C20.1322 21.006 20.2629 20.9798 20.3848 20.9291C20.5066 20.8783 20.6172 20.8039 20.7102 20.7102C20.8039 20.6172 20.8783 20.5066 20.9291 20.3848C20.9798 20.2629 21.006 20.1322 21.006 20.0002C21.006 19.8682 20.9798 19.7375 20.9291 19.6156C20.8783 19.4937 20.8039 19.3831 20.7102 19.2902L4.71019 3.29019ZM16.9102 14.0802L18.3502 15.5202C19.1073 14.4786 19.5092 13.2212 19.4966 11.9336C19.484 10.6461 19.0575 9.3967 18.2802 8.37019C18.1131 8.16332 17.8707 8.0313 17.6063 8.00316C17.3418 7.97503 17.0771 8.0531 16.8702 8.22019C16.6633 8.38727 16.5313 8.62969 16.5032 8.89412C16.475 9.15855 16.5531 9.42332 16.7202 9.63019C17.1894 10.2695 17.458 11.0339 17.4919 11.8263C17.5257 12.6186 17.3232 13.4032 16.9102 14.0802Z" fill="white"/>
<path d="M21 12.0006C20.979 13.6355 20.3436 15.2027 19.22 16.3906L20.64 17.8106C22.1358 16.2438 22.9796 14.1666 23 12.0006C22.9815 10.6927 22.6701 9.40568 22.0887 8.23408C21.5072 7.06248 20.6704 6.03614 19.64 5.23057C19.5389 5.14652 19.4222 5.08322 19.2966 5.04426C19.171 5.00531 19.039 4.99148 18.9081 5.00355C18.7771 5.01562 18.6499 5.05336 18.5335 5.11462C18.4172 5.17588 18.314 5.25945 18.23 5.36057C18.146 5.46169 18.0826 5.57837 18.0437 5.70395C18.0047 5.82953 17.9909 5.96156 18.003 6.09249C18.0151 6.22342 18.0528 6.35069 18.114 6.46704C18.1753 6.58338 18.2589 6.68652 18.36 6.77057C19.162 7.39044 19.8153 8.18178 20.2721 9.08668C20.7289 9.99158 20.9776 10.9872 21 12.0006ZM13.5 18.1006L8.4 14.6006C8.23164 14.4874 8.03285 14.4281 7.83 14.4306H3.5V9.57057H6.74L4.74 7.57057H2.5C2.23478 7.57057 1.98043 7.67592 1.79289 7.86346C1.60536 8.051 1.5 8.30535 1.5 8.57057V15.4306C1.5 15.6958 1.60536 15.9501 1.79289 16.1377C1.98043 16.3252 2.23478 16.4306 2.5 16.4306H7.5L13.91 20.8306C14.0799 20.9405 14.2777 20.9995 14.48 21.0006C14.7452 21.0006 14.9996 20.8952 15.1871 20.7077C15.3746 20.5201 15.48 20.2658 15.48 20.0006V18.3306L13.48 16.3306L13.5 18.1006ZM13.5 5.90057V10.6706L15.5 12.6706V4.00057C15.5015 3.81729 15.4527 3.63711 15.3587 3.47972C15.2648 3.32234 15.1294 3.19379 14.9674 3.10813C14.8054 3.02246 14.6229 2.98298 14.44 2.99399C14.257 3.00501 14.0806 3.06609 13.93 3.17057L9.23 6.40057L10.67 7.84057L13.5 5.90057Z" fill="white"/>
</svg>
