<svg width="20" height="20" viewBox="0 0 20 20" fill="none" xmlns="http://www.w3.org/2000/svg">
<path d="M16.3666 4.35826C16.2823 4.28822 16.1851 4.23547 16.0804 4.20301C15.9758 4.17055 15.8658 4.15902 15.7567 4.16908C15.6476 4.17914 15.5415 4.21059 15.4445 4.26164C15.3476 4.31268 15.2616 4.38233 15.1916 4.46659C15.1216 4.55086 15.0688 4.64809 15.0363 4.75275C15.0039 4.8574 14.9924 4.96742 15.0024 5.07653C15.0125 5.18564 15.0439 5.2917 15.095 5.38865C15.146 5.48561 15.2157 5.57156 15.2999 5.64159C15.9683 6.15815 16.5127 6.8176 16.8934 7.57169C17.274 8.32577 17.4813 9.15542 17.4999 9.99993C17.4813 10.8444 17.274 11.6741 16.8934 12.4282C16.5127 13.1823 15.9683 13.8417 15.2999 14.3583C15.2156 14.4282 15.1458 14.5141 15.0947 14.6111C15.0435 14.708 15.012 14.8141 15.002 14.9233C14.9919 15.0324 15.0035 15.1425 15.036 15.2472C15.0686 15.3518 15.1214 15.4491 15.1916 15.5333C15.27 15.6273 15.3681 15.703 15.479 15.7548C15.5899 15.8067 15.7108 15.8335 15.8333 15.8333C16.028 15.8336 16.2167 15.7658 16.3666 15.6416C17.2253 14.9703 17.9226 14.115 18.4071 13.1387C18.8917 12.1623 19.1512 11.0898 19.1666 9.99993C19.1512 8.91007 18.8917 7.83752 18.4071 6.86119C17.9226 5.88485 17.2253 5.02957 16.3666 4.35826V4.35826ZM12.4999 2.59993C12.3733 2.52679 12.2295 2.48828 12.0833 2.48828C11.937 2.48828 11.7933 2.52679 11.6666 2.59993L6.2666 6.30826H2.09993C1.87892 6.30826 1.66696 6.39606 1.51068 6.55234C1.3544 6.70862 1.2666 6.92058 1.2666 7.14159V12.8583C1.2666 13.0793 1.3544 13.2912 1.51068 13.4475C1.66696 13.6038 1.87892 13.6916 2.09993 13.6916H6.2666L11.6083 17.3583C11.7498 17.4498 11.9147 17.499 12.0833 17.4999C12.3043 17.4999 12.5162 17.4121 12.6725 17.2558C12.8288 17.0996 12.9166 16.8876 12.9166 16.6666V3.33326C12.9187 3.18501 12.8811 3.0389 12.8079 2.90999C12.7347 2.78108 12.6283 2.67404 12.4999 2.59993V2.59993ZM11.2749 15.0999L6.99993 12.1666C6.85964 12.0723 6.69397 12.0229 6.52493 12.0249H2.9166V7.97493H6.52493C6.69397 7.97698 6.85964 7.92757 6.99993 7.83326L11.2499 4.91659L11.2749 15.0999Z" fill="white"/>
</svg>
