<svg fill="none" height="21" viewBox="0 0 99 21" width="99" xmlns="http://www.w3.org/2000/svg"><path d="m19.8706.0639997v19.9360003h-3.192v-12.376l-5.292 12.376h-2.38005l-5.32-12.236v12.236h-3.191999v-19.9360003h2.855999l6.86005 15.5960003 6.804-15.5960003zm16.6517 5.7960003v14.14h-3.416v-2.184c-.448.784-1.0454 1.3813-1.792 1.792-.7467.4107-1.6054.616-2.576.616-3.4534 0-5.18-1.9413-5.18-5.824v-8.54h3.472v8.568c0 1.0267.2053 1.7827.616 2.268.4293.4853 1.0826.728 1.96.728 1.0266 0 1.848-.336 2.464-1.008s.924-1.568.924-2.688v-7.868zm15.2263 11.48v2.66h-12.292v-2.436l7.812-9.072h-7.644v-2.632h11.816v2.38l-7.84 9.1zm19.697-17.2760003v19.9360003h-2.688l-10.752-13.972v13.972h-3.36v-19.9360003h2.688l10.724 13.9440003v-13.9440003zm16.1274 13.0480003h-9.744c.0746 1.512.448 2.632 1.12 3.36.6906.7093 1.708 1.064 3.052 1.064 1.5493 0 2.9866-.504 4.312-1.512l1.008 2.408c-.672.5413-1.5027.98-2.492 1.316-.9707.3173-1.96.476-2.968.476-2.3147 0-4.1347-.6533-5.46-1.96-1.3254-1.3067-1.988-3.0987-1.988-5.376 0-1.4373.2893-2.716.868-3.836.5786-1.12 1.3906-1.988 2.436-2.604 1.0453-.63467 2.2306-.952 3.556-.952 1.9413 0 3.472.63467 4.592 1.904 1.1386 1.25067 1.708 2.9773 1.708 5.18zm-6.216-5.096c-.9334 0-1.6987.28-2.296.84-.5787.54133-.952 1.3347-1.12 2.38h6.58c-.112-1.064-.4387-1.86667-.98-2.408-.5227-.54133-1.2507-.812-2.184-.812zm13.1071.476v6.328c0 1.6613.7746 2.492 2.324 2.492.4293 0 .896-.0747 1.4-.224v2.772c-.616.224-1.3627.336-2.24.336-1.6054 0-2.8374-.448-3.696-1.344-.8587-.896-1.288-2.184-1.288-3.864v-6.496h-2.716v-2.632h2.716v-3.444l3.5-1.176v4.62h3.752v2.632z" fill="#0c0c0e"/></svg>