<svg width="25" height="24" viewBox="0 0 25 24" fill="none" xmlns="http://www.w3.org/2000/svg">
<g clip-path="url(#clip0_4895_20270)">
<path d="M5.21019 3.29019C5.11695 3.19695 5.00626 3.12299 4.88443 3.07253C4.76261 3.02207 4.63204 2.99609 4.50019 2.99609C4.36833 2.99609 4.23776 3.02207 4.11594 3.07253C3.99411 3.12299 3.88342 3.19695 3.79019 3.29019C3.60188 3.47849 3.49609 3.73388 3.49609 4.00019C3.49609 4.26649 3.60188 4.52188 3.79019 4.71019L9.42019 10.3402C9.06399 11.0028 8.93077 11.7626 9.04027 12.5068C9.14978 13.2511 9.49617 13.9403 10.0281 14.4722C10.5601 15.0042 11.2493 15.3506 11.9935 15.4601C12.7378 15.5696 13.4976 15.4364 14.1602 15.0802L19.7902 20.7102C19.8831 20.8039 19.9937 20.8783 20.1156 20.9291C20.2375 20.9798 20.3682 21.006 20.5002 21.006C20.6322 21.006 20.7629 20.9798 20.8848 20.9291C21.0066 20.8783 21.1172 20.8039 21.2102 20.7102C21.3039 20.6172 21.3783 20.5066 21.4291 20.3848C21.4798 20.2629 21.506 20.1322 21.506 20.0002C21.506 19.8682 21.4798 19.7375 21.4291 19.6156C21.3783 19.4937 21.3039 19.3831 21.2102 19.2902L5.21019 3.29019ZM12.5002 13.5002C12.1024 13.5002 11.7208 13.3422 11.4395 13.0608C11.1582 12.7795 11.0002 12.398 11.0002 12.0002V11.9302L12.5602 13.4902L12.5002 13.5002Z" fill="#141517"/>
<path d="M12.7201 16.9991C8.42007 17.0991 5.60007 13.4091 4.72007 11.9991C5.34654 10.9998 6.09943 10.0856 6.96007 9.27914L5.50007 7.86914C4.37139 8.93261 3.40448 10.1556 2.63007 11.4991C2.5423 11.6512 2.49609 11.8236 2.49609 11.9991C2.49609 12.1747 2.5423 12.3471 2.63007 12.4991C3.26007 13.5891 6.63007 18.9991 12.5201 18.9991H12.7701C13.8776 18.9663 14.9708 18.7395 16.0001 18.3291L14.4201 16.7491C13.8644 16.8953 13.2943 16.9792 12.7201 16.9991Z" fill="#141517"/>
<path d="M22.37 11.5004C21.73 10.3904 18.2 4.82036 12.23 5.00036C11.1225 5.03321 10.0292 5.25998 9 5.67036L10.58 7.25036C11.1356 7.10419 11.7058 7.02034 12.28 7.00036C16.57 6.89036 19.39 10.5904 20.28 12.0004C19.6381 13.0027 18.8682 13.917 17.99 14.7204L19.5 16.1304C20.6428 15.0697 21.6234 13.8466 22.41 12.5004C22.4918 12.3449 22.5311 12.1705 22.5241 11.995C22.5171 11.8194 22.4639 11.6488 22.37 11.5004Z" fill="black"/>
</g>
<defs>
<clipPath id="clip0_4895_20270">
<rect width="24" height="24" fill="white" transform="translate(0.5)"/>
</clipPath>
</defs>
</svg>
