<svg width="25" height="24" viewBox="0 0 25 24" fill="none" xmlns="http://www.w3.org/2000/svg">
<path d="M21.5004 3.9996C21.49 3.90773 21.4699 3.81723 21.4404 3.7296V3.6396C21.3925 3.5283 21.3247 3.42665 21.2404 3.3396C21.1556 3.25986 21.0574 3.19556 20.9504 3.1496H20.8604C20.7683 3.07921 20.6628 3.02818 20.5504 2.9996H20.5004C20.401 2.98451 20.2999 2.98451 20.2004 2.9996L2.20045 8.9996C2.00038 9.06535 1.82618 9.1926 1.70268 9.36319C1.57918 9.53377 1.5127 9.739 1.5127 9.94959C1.5127 10.1602 1.57918 10.3654 1.70268 10.536C1.82618 10.7066 2.00038 10.8338 2.20045 10.8996L10.7304 13.7396L13.5704 22.2696C13.6362 22.4697 13.7634 22.6439 13.934 22.7674C14.1046 22.8909 14.3098 22.9573 14.5204 22.9573C14.731 22.9573 14.9363 22.8909 15.1069 22.7674C15.2774 22.6439 15.4047 22.4697 15.4704 22.2696L21.4704 4.2696C21.4927 4.18138 21.5028 4.09054 21.5004 3.9996ZM16.8004 6.2896L11.2304 11.8596L5.66045 9.9996L16.8004 6.2896ZM14.5004 18.8396L12.6404 13.2696L18.2104 7.69959L14.5004 18.8396Z" fill="black"/>
</svg>
