<svg width="25" height="24" viewBox="0 0 25 24" fill="none" xmlns="http://www.w3.org/2000/svg">
<path d="M23.0601 16.3007L15.3901 3.58067C15.08 3.09549 14.6527 2.69619 14.1476 2.41961C13.6425 2.14302 13.0759 1.99805 12.5001 1.99805C11.9243 1.99805 11.3577 2.14302 10.8526 2.41961C10.3475 2.69619 9.92024 3.09549 9.6101 3.58067L1.9401 16.3007C1.66915 16.7523 1.52189 17.2674 1.51311 17.794C1.50434 18.3206 1.63436 18.8402 1.8901 19.3007C2.18578 19.8189 2.61376 20.2494 3.1303 20.5481C3.64684 20.8468 4.23343 21.0029 4.8301 21.0007H20.1701C20.7629 21.007 21.3468 20.8569 21.863 20.5654C22.3792 20.2739 22.8093 19.8515 23.1101 19.3407C23.3734 18.8754 23.5075 18.3483 23.4987 17.8139C23.4899 17.2794 23.3385 16.757 23.0601 16.3007ZM21.3601 18.3507C21.2399 18.5573 21.0655 18.727 20.8557 18.8416C20.646 18.9562 20.4089 19.0112 20.1701 19.0007H4.8301C4.59132 19.0112 4.35422 18.9562 4.14446 18.8416C3.9347 18.727 3.76029 18.5573 3.6401 18.3507C3.55233 18.1987 3.50613 18.0262 3.50613 17.8507C3.50613 17.6751 3.55233 17.5027 3.6401 17.3507L11.3201 4.62067C11.4581 4.43838 11.6365 4.29053 11.8412 4.18874C12.0459 4.08695 12.2715 4.03398 12.5001 4.03398C12.7287 4.03398 12.9543 4.08695 13.159 4.18874C13.3637 4.29053 13.5421 4.43838 13.6801 4.62067L21.3501 17.3407C21.4413 17.493 21.4902 17.6668 21.492 17.8443C21.4937 18.0218 21.4482 18.1966 21.3601 18.3507Z" fill="#FC4529"/>
<path d="M12.5 17C13.0523 17 13.5 16.5523 13.5 16C13.5 15.4477 13.0523 15 12.5 15C11.9477 15 11.5 15.4477 11.5 16C11.5 16.5523 11.9477 17 12.5 17Z" fill="#FC4529"/>
<path d="M12.5 8C12.2348 8 11.9804 8.10536 11.7929 8.29289C11.6054 8.48043 11.5 8.73478 11.5 9V13C11.5 13.2652 11.6054 13.5196 11.7929 13.7071C11.9804 13.8946 12.2348 14 12.5 14C12.7652 14 13.0196 13.8946 13.2071 13.7071C13.3946 13.5196 13.5 13.2652 13.5 13V9C13.5 8.73478 13.3946 8.48043 13.2071 8.29289C13.0196 8.10536 12.7652 8 12.5 8Z" fill="#FC4529"/>
</svg>
