<svg width="24" height="24" viewBox="0 0 24 24" fill="none" xmlns="http://www.w3.org/2000/svg">
<g clip-path="url(#clip0_6325_25767)">
<path d="M18.3463 14.7923C18.9047 13.405 19.0332 11.8695 18.7138 10.4019C18.3945 8.93419 17.6433 7.60809 16.566 6.61001C15.4886 5.61193 14.1393 4.99206 12.7076 4.83754C11.3784 4.6941 10.0404 4.95844 8.85573 5.59474C8.70573 5.67531 8.51651 5.62429 8.4349 5.47485L7.86912 4.43878C7.79188 4.29735 7.83992 4.11965 7.98097 4.04172C9.22409 3.35488 10.6107 2.99648 12.0195 3.00003C13.5236 3.00382 15.0005 3.42003 16.3027 4.20713C20.1662 6.53959 21.6462 11.5339 19.8453 15.6985L20.5566 16.1275C20.754 16.2466 20.7489 16.5346 20.5474 16.6466L17.8454 18.1487C17.6493 18.2577 17.4073 18.1208 17.3998 17.8965L17.2927 14.6978C17.2847 14.4599 17.5437 14.3079 17.7475 14.4309L18.3463 14.7923ZM5.65452 9.20771C5.09621 10.595 4.96769 12.1305 5.28704 13.5981C5.60638 15.0658 6.35753 16.3919 7.43488 17.39C8.51223 18.3881 9.8616 19.0079 11.2933 19.1625C12.6224 19.3059 13.9604 19.0416 15.1451 18.4053C15.2951 18.3247 15.4844 18.3757 15.566 18.5252L16.1317 19.5612C16.209 19.7026 16.1609 19.8803 16.0199 19.9583C14.7768 20.6451 13.3902 21.0035 11.9813 21C10.4772 20.9962 9.00038 20.58 7.69812 19.7929C3.83465 17.4604 2.35465 12.4661 4.1556 8.30154L3.44415 7.87329C3.24652 7.75433 3.25149 7.46613 3.4531 7.35405L6.15465 5.85221C6.35075 5.7432 6.59274 5.88015 6.60025 6.10438L6.70731 9.30308C6.71527 9.54099 6.45627 9.69296 6.25247 9.56997L5.65366 9.2086L5.65452 9.20771Z" fill="white"/>
</g>
<defs>
<clipPath id="clip0_6325_25767">
<rect width="24" height="24" fill="white"/>
</clipPath>
</defs>
</svg>
