<svg width="24" height="24" viewBox="0 0 24 24" fill="none" xmlns="http://www.w3.org/2000/svg">
<path d="M20.7102 19.2909L4.71019 3.29088C4.61695 3.19764 4.50626 3.12368 4.38443 3.07322C4.26261 3.02276 4.13204 2.99679 4.00019 2.99679C3.86833 2.99679 3.73776 3.02276 3.61594 3.07322C3.49411 3.12368 3.38342 3.19764 3.29019 3.29088C3.10188 3.47918 2.99609 3.73458 2.99609 4.00088C2.99609 4.26718 3.10188 4.52257 3.29019 4.71088L19.2902 20.7109C19.3831 20.8046 19.4937 20.879 19.6156 20.9298C19.7375 20.9805 19.8682 21.0067 20.0002 21.0067C20.1322 21.0067 20.2629 20.9805 20.3848 20.9298C20.5066 20.879 20.6172 20.8046 20.7102 20.7109C20.8039 20.6179 20.8783 20.5073 20.9291 20.3855C20.9798 20.2636 21.006 20.1329 21.006 20.0009C21.006 19.8689 20.9798 19.7382 20.9291 19.6163C20.8783 19.4944 20.8039 19.3838 20.7102 19.2909ZM12.5402 18.0609L12.8102 15.6409L10.0002 12.8009H6.87019L8.11019 10.9409L6.67019 9.50088L4.17019 13.2409C4.06845 13.3914 4.00964 13.5668 4.00007 13.7482C3.99049 13.9296 4.03052 14.1102 4.11585 14.2706C4.20119 14.431 4.3286 14.5651 4.4844 14.6585C4.6402 14.7519 4.81852 14.8012 5.00019 14.8009H10.8902L10.1202 21.8909C10.0953 22.1134 10.1459 22.3378 10.2637 22.5282C10.3816 22.7186 10.5599 22.8639 10.7702 22.9409C10.8792 22.9804 10.9942 23.0007 11.1102 23.0009C11.274 23.0011 11.4353 22.9611 11.5801 22.8844C11.7248 22.8077 11.8485 22.6966 11.9402 22.5609L15.0602 17.8909L13.6202 16.4509L12.5402 18.0609ZM11.4602 5.94088L11.1902 8.36088L14.0002 11.2009H17.1002L15.8602 13.0609L17.3002 14.5009L19.8002 10.7609C19.9006 10.6125 19.9593 10.4398 19.9701 10.261C19.981 10.0821 19.9435 9.90361 19.8618 9.74416C19.78 9.58472 19.6569 9.45017 19.5053 9.3546C19.3538 9.25903 19.1793 9.20594 19.0002 9.20088H13.1102L13.8802 2.11088C13.8936 1.89649 13.8377 1.68347 13.7206 1.50337C13.6035 1.32326 13.4316 1.18564 13.2302 1.11088C13.0207 1.03478 12.7918 1.03084 12.5798 1.09969C12.3679 1.16853 12.185 1.30622 12.0602 1.49088L8.94019 6.11088L10.3802 7.55088L11.4602 5.94088Z" fill="white"/>
</svg>
